PathFileType	4	(X/Y/Z)	./resultDataOpenSim/trcMotMarkerGrf/sub09/qtm-13-07.trc
DataRate	CameraRate	NumFrames	NumMarkers	Units	OrigDataRate	OrigDataStartFrame	OrigNumFrames
250.000000	250.000000	5	24	m	250.000000	423	483
Frame#	Time	L.Toe.Tip			R.Toe.Tip			L.Ankle.Lat			R.Ankle.Lat			L.Ankle.Med			R.Ankle.Med			L.Heel			R.Heel			L.Knee.Lat			R.Knee.Lat			L.Knee.Med			R.Knee.Med			L.Thigh.Upper			R.Thigh.Upper			L.ASIS			R.ASIS			V.Sacral			L.Acromium			R.Acromium			C7			L.Elbow			R.Elbow			L.Wrist.Lat			R.Wrist.Lat
		X1	Y1	Z1	X2	Y2	Z2	X3	Y3	Z3	X4	Y4	Z4	X5	Y5	Z5	X6	Y6	Z6	X7	Y7	Z7	X8	Y8	Z8	X9	Y9	Z9	X10	Y10	Z10	X11	Y11	Z11	X12	Y12	Z12	X13	Y13	Z13	X14	Y14	Z14	X15	Y15	Z15	X16	Y16	Z16	X17	Y17	Z17	X18	Y18	Z18	X19	Y19	Z19	X20	Y20	Z20	X21	Y21	Z21	X22	Y22	Z22	X23	Y23	Z23	X24	Y24	Z24

423	1.688	1.8075712	0.10350209	-0.067780581	1.079728	0.040232616	0.055083858	1.6548982	0.078019628	-0.092406327	0.95010786	0.10133528	0.092673865	1.678436	0.10757241	-0.00069098544	0.97498866	0.13665337	0.004034086	1.6074466	0.01989443	-0.036995154	0.8778748	0.10889794	0.043040032	1.5280764	0.4773942	-0.13131438	1.2165414	0.48040897	0.15904117	1.5363787	0.47347682	-0.0044191107	1.2046866	0.47417175	0.031548763	1.3454478	0.85061175	-0.16668285	1.2862552	0.87871746	0.20472431	1.4130604	0.94329108	-0.10247712	1.4012072	0.95654702	0.13888225	1.2378898	0.99919387	-0.0014314555	1.3742181	1.3980257	-0.17120608	1.3675677	1.4194658	0.16044451	1.3025193	1.4567359	-0.0055219331	1.2119813	1.065268	-0.2104301	1.247161	1.0629751	0.25626689	1.309627	0.82904456	-0.27268032	1.490971	0.9274187	0.2248256
424	1.692	1.8111856	0.096644059	-0.06676847	1.0800142	0.040409974	0.055126328	1.6575341	0.076353945	-0.091444571	0.95150845	0.10327129	0.093261024	1.6815577	0.10569544	0.00027576369	0.97709361	0.13841341	0.004679253	1.6083404	0.020312853	-0.036059254	0.87958415	0.11209119	0.043512573	1.5352708	0.47659217	-0.13152009	1.2231218	0.47914357	0.15948565	1.5439806	0.47328796	-0.0049402093	1.211756	0.47260007	0.032347953	1.35138	0.85000718	-0.16754193	1.2928575	0.877334	0.20402686	1.4196025	0.9424766	-0.10299402	1.4078992	0.95517748	0.13841127	1.2443989	0.99803038	-0.0018783404	1.3799664	1.396933	-0.17171529	1.3730739	1.4182744	0.15997007	1.307992	1.4554915	-0.0060683059	1.2181456	1.0639899	-0.21105277	1.2523095	1.0617413	0.25503495	1.3160106	0.82784165	-0.27325237	1.495664	0.92519211	0.22487981
425	1.696	1.8153773	0.089597881	-0.065612733	1.0803384	0.040611216	0.055201642	1.6604319	0.075338546	-0.090619102	0.95354642	0.10538972	0.093992872	1.6852346	0.10423591	0.0010864736	0.97935989	0.14022744	0.0053572672	1.6095095	0.021540634	-0.035081929	0.88145753	0.11542732	0.043961094	1.5421867	0.47594339	-0.13175965	1.2299345	0.47779003	0.15996781	1.5514245	0.47302005	-0.0054970816	1.2189322	0.47093445	0.033079167	1.3573356	0.84941234	-0.16842835	1.2995232	0.87593702	0.20329542	1.4260714	0.94180499	-0.10348374	1.4146259	0.95381142	0.13792304	1.2508618	0.99695964	-0.0022403797	1.3857295	1.3958687	-0.17225483	1.3786154	1.4170963	0.15950399	1.3134756	1.4543024	-0.0066169098	1.2243649	1.0627155	-0.21166356	1.2574239	1.060586	0.25397977	1.322452	0.82664347	-0.27382254	1.5004689	0.92289508	0.22492171
426	1.7	1.8198966	0.082941041	-0.064292988	1.0807184	0.040841852	0.05533806	1.663594	0.074817309	-0.09012208	0.95669236	0.10774846	0.09510372	1.6892199	0.10299113	0.001603017	0.98178712	0.14208847	0.0060864603	1.6109686	0.02324172	-0.034567979	0.8835043	0.11891374	0.04443247	1.5489246	0.47558669	-0.13207411	1.236926	0.47637483	0.1604565	1.5586795	0.47275785	-0.0060126364	1.2260706	0.46908895	0.033580664	1.3634005	0.84884367	-0.1693191	1.3063722	0.87445601	0.20253384	1.4324693	0.94127192	-0.10395508	1.4213787	0.9524464	0.13741959	1.2572495	0.99600928	-0.0025562538	1.3915039	1.3948436	-0.17282176	1.3841788	1.4159465	0.15905829	1.3190216	1.4531989	-0.0071963308	1.2306536	1.0614456	-0.21224999	1.2627309	1.0594623	0.25302751	1.328941	0.82545466	-0.27438054	1.505327	0.92054364	0.22496626
427	1.704	1.8242549	0.077036484	-0.062912458	1.081154	0.041093005	0.055546884	1.6669476	0.074498763	-0.090018823	0.96034291	0.11040167	0.096672046	1.6931091	0.10182636	0.0018103005	0.98437872	0.14400074	0.0068737186	1.6126096	0.025010408	-0.034908137	0.88573585	0.12256049	0.044975772	1.5557675	0.47564153	-0.13252629	1.2440554	0.47496206	0.16094389	1.5657525	0.47266153	-0.0064521601	1.23333	0.46695649	0.033972074	1.3696385	0.84834723	-0.17018967	1.313395	0.87287469	0.20175983	1.4388003	0.9408635	-0.10442791	1.4281348	0.95108422	0.1368932	1.2635375	0.99518277	-0.0028861102	1.3972813	1.3938689	-0.17340388	1.3897491	1.4148436	0.15863932	1.3246605	1.4521907	-0.0078358972	1.237016	1.0601815	-0.21281221	1.268206	1.0583499	0.25208095	1.3354743	0.82428122	-0.27491854	1.5101549	0.91815093	0.225034
